<!DOCTYPE svg PUBLIC "-//W3C//DTD SVG 1.1//EN" "http://www.w3.org/Graphics/SVG/1.1/DTD/svg11.dtd">
<!-- Uploaded to: SVG Repo, www.svgrepo.com, Transformed by: SVG Repo Mixer Tools -->
<svg fill="#ffffff" width="800px" height="800px" viewBox="0 0 32 32" version="1.1" xmlns="http://www.w3.org/2000/svg" stroke="#ffffff">
<g id="SVGRepo_bgCarrier" stroke-width="0"/>
<g id="SVGRepo_tracerCarrier" stroke-linecap="round" stroke-linejoin="round"/>
<g id="SVGRepo_iconCarrier"> <title>arrow-down-right</title> <path d="M26.65 11.758c0-0.414-0.336-0.75-0.75-0.75s-0.75 0.336-0.75 0.75v0 12.332l-18.52-18.52c-0.135-0.131-0.319-0.212-0.522-0.212-0.414 0-0.75 0.336-0.75 0.75 0 0.203 0.081 0.387 0.212 0.522l18.517 18.519h-12.33c-0.414 0-0.75 0.336-0.75 0.75s0.336 0.75 0.75 0.75v0h14.143c0.104-0.001 0.202-0.021 0.292-0.059l-0.005 0.002 0.002-0.002c0.121-0.056 0.222-0.14 0.296-0.243l0.002-0.002c0.017-0.021 0.033-0.045 0.048-0.070l0.002-0.003c0.068-0.106 0.11-0.234 0.113-0.372l0-0.001z"/> </g>
</svg>