<!DOCTYPE svg PUBLIC "-//W3C//DTD SVG 1.1//EN" "http://www.w3.org/Graphics/SVG/1.1/DTD/svg11.dtd">
<!-- Uploaded to: SVG Repo, www.svgrepo.com, Transformed by: SVG Repo Mixer Tools -->
<svg height="800px" width="800px" version="1.1" id="Layer_1" xmlns="http://www.w3.org/2000/svg" xmlns:xlink="http://www.w3.org/1999/xlink" viewBox="0 0 503.32 503.32" xml:space="preserve" fill="#000000">
<g id="SVGRepo_bgCarrier" stroke-width="0"/>
<g id="SVGRepo_tracerCarrier" stroke-linecap="round" stroke-linejoin="round"/>
<g id="SVGRepo_iconCarrier"> <g> <path style="fill:#58c682;" d="M416.542,172.95v183.461c0,23.621-19.152,42.774-42.774,42.774H190.915l-86.78,95.458v-95.458 H42.782C19.152,399.184,0,380.032,0,356.411V172.95c0-23.63,19.152-42.782,42.782-42.782h330.986 C397.39,130.167,416.542,149.32,416.542,172.95"/> <g> <path style="fill:#e29428;" d="M460.547,8.678H129.56c-23.63,0-42.782,19.152-42.782,42.782v78.709h286.989 c23.621,0,42.774,19.152,42.774,42.782v104.743h44.006c23.621,0,42.774-19.152,42.774-42.782V51.461 C503.32,27.831,484.168,8.678,460.547,8.678"/> <path style="fill:#e29428;" d="M256.106,182.238c-23.092,0-40.552,16.584-47.859,34.712 c-7.298-18.128-24.758-34.712-47.859-34.712c-47.85,0-63.479,60.433-28.906,96.23c12.878,13.329,73.225,74.292,76.861,77.329 c4.209-4.183,64.208-63.826,76.67-77.329C319.689,240.918,303.965,182.238,256.106,182.238"/> </g> </g> </g>
</svg>