<!DOCTYPE svg PUBLIC "-//W3C//DTD SVG 1.1//EN" "http://www.w3.org/Graphics/SVG/1.1/DTD/svg11.dtd">
<!-- Uploaded to: SVG Repo, www.svgrepo.com, Transformed by: SVG Repo Mixer Tools -->
<svg width="800px" height="800px" viewBox="0 0 20 20" version="1.1" xmlns="http://www.w3.org/2000/svg" fill="#ffffff" stroke="#ffffff">
<g id="SVGRepo_bgCarrier" stroke-width="0"/>
<g id="SVGRepo_tracerCarrier" stroke-linecap="round" stroke-linejoin="round"/>
<g id="SVGRepo_iconCarrier"> <g id="layer1"> <path d="M 9.3457031 2.0019531 L 8.734375 2.0351562 L 8.125 2.1113281 L 7.5214844 2.2324219 L 6.9316406 2.3964844 L 6.3535156 2.6035156 L 5.7929688 2.8515625 L 5.2480469 3.1386719 L 4.7304688 3.4648438 L 4.234375 3.828125 L 3.765625 4.2246094 L 3.328125 4.6542969 L 2.9238281 5.1152344 L 2.5527344 5.6035156 L 2.2167969 6.1191406 L 1.9179688 6.6542969 L 1.6621094 7.2128906 L 1.4433594 7.7851562 L 1.2695312 8.3730469 L 1.1386719 8.9746094 L 1.0488281 9.5820312 L 1.0058594 10.193359 L 1.0058594 10.808594 L 1.0488281 11.417969 L 1.1386719 12.025391 L 1.2695312 12.626953 L 1.4433594 13.212891 L 1.6621094 13.787109 L 1.9179688 14.345703 L 2.2167969 14.880859 L 2.5527344 15.396484 L 2.9238281 15.884766 L 3.328125 16.345703 L 3.765625 16.775391 L 4.234375 17.171875 L 4.7304688 17.535156 L 5.2480469 17.861328 L 5.7929688 18.148438 L 6.3535156 18.394531 L 6.9316406 18.603516 L 7.5214844 18.765625 L 8.125 18.888672 L 8.734375 18.964844 L 9.3457031 18.998047 L 9.9609375 18.988281 L 10.572266 18.933594 L 11.175781 18.832031 L 11.773438 18.689453 L 12.357422 18.505859 L 12.927734 18.277344 L 13.480469 18.009766 L 14.011719 17.703125 L 14.521484 17.357422 L 15.001953 16.976562 L 15.455078 16.564453 L 15.876953 16.117188 L 16.265625 15.642578 L 16.619141 15.142578 L 16.9375 14.617188 L 17.212891 14.068359 L 17.451172 13.501953 L 17.646484 12.921875 L 17.800781 12.326172 L 17.910156 11.724609 L 17.976562 11.113281 L 18 10.5 L 17.976562 9.8867188 L 17.910156 9.2753906 L 17.800781 8.6738281 L 17.646484 8.078125 L 17.451172 7.4980469 L 17.212891 6.9316406 L 16.9375 6.3828125 L 16.619141 5.8574219 L 16.265625 5.3574219 L 15.876953 4.8808594 L 15.455078 4.4355469 L 15.001953 4.0214844 L 14.521484 3.6425781 L 14.011719 3.296875 L 13.480469 2.9902344 L 12.927734 2.7226562 L 12.357422 2.4960938 L 11.773438 2.3105469 L 11.175781 2.1679688 L 10.572266 2.0683594 L 9.9609375 2.0117188 L 9.3457031 2.0019531 z M 9.6445312 3.0019531 L 10.224609 3.0351562 L 10.800781 3.1152344 L 11.369141 3.2363281 L 11.927734 3.4042969 L 12.46875 3.6132812 L 12.996094 3.8632812 L 13.498047 4.1542969 L 13.978516 4.484375 L 14.431641 4.8496094 L 14.853516 5.2480469 L 15.244141 5.6796875 L 15.599609 6.1386719 L 15.919922 6.6230469 L 16.201172 7.1328125 L 16.441406 7.6621094 L 16.640625 8.2109375 L 16.798828 8.7714844 L 16.910156 9.3417969 L 16.976562 9.9199219 L 17 10.5 L 16.976562 11.080078 L 16.910156 11.658203 L 16.798828 12.228516 L 16.640625 12.789062 L 16.441406 13.335938 L 16.201172 13.865234 L 15.919922 14.375 L 15.599609 14.861328 L 15.244141 15.322266 L 14.853516 15.751953 L 14.431641 16.150391 L 13.978516 16.515625 L 13.498047 16.845703 L 12.996094 17.136719 L 12.46875 17.386719 L 11.927734 17.595703 L 11.369141 17.763672 L 10.800781 17.886719 L 10.224609 17.964844 L 9.6445312 17.998047 L 9.0644531 17.988281 L 8.484375 17.929688 L 7.9121094 17.828125 L 7.3496094 17.683594 L 6.7988281 17.496094 L 6.2636719 17.265625 L 5.75 16.996094 L 5.2578125 16.683594 L 4.7910156 16.337891 L 4.3535156 15.955078 L 3.9453125 15.539062 L 3.5722656 15.09375 L 3.234375 14.621094 L 2.9335938 14.123047 L 2.671875 13.603516 L 2.453125 13.064453 L 2.2753906 12.509766 L 2.140625 11.943359 L 2.0507812 11.369141 L 2.0058594 10.791016 L 2.0058594 10.208984 L 2.0507812 9.6289062 L 2.140625 9.0546875 L 2.2753906 8.4902344 L 2.453125 7.9355469 L 2.671875 7.3964844 L 2.9335938 6.8769531 L 3.234375 6.3789062 L 3.5722656 5.9042969 L 3.9453125 5.4609375 L 4.3535156 5.0449219 L 4.7910156 4.6621094 L 5.2578125 4.3144531 L 5.75 4.0039062 L 6.2636719 3.734375 L 6.7988281 3.5039062 L 7.3496094 3.3164062 L 7.9121094 3.1699219 L 8.484375 3.0703125 L 9.0644531 3.0117188 L 9.6445312 3.0019531 z M 9.5 6 C 7.0147186 6 5 8.0147186 5 10.5 C 5 12.985281 7.0147186 15 9.5 15 C 10.511305 14.998 11.492441 14.655313 12.285156 14.027344 L 11.667969 13.248047 C 11.050346 13.735201 10.286624 14.000096 9.5 14 C 7.5670034 14 6 12.432997 6 10.5 C 6 8.5670034 7.5670034 7 9.5 7 C 10.286419 7.00146 11.049432 7.2677186 11.666016 7.7558594 L 12.289062 6.96875 C 11.494783 6.3413529 10.51218 6.0000567 9.5 6 z " style="fill:#ffffff; fill-opacity:1; stroke:none; stroke-width:0px;"/> </g> </g>
</svg>