<?xml version="1.0" encoding="utf-8"?>
<!-- Uploaded to: SVG Repo, www.svgrepo.com, Generator: SVG Repo Mixer Tools -->
<svg width="800px" height="800px" viewBox="0 0 32 32" fill="none" xmlns="http://www.w3.org/2000/svg">
<g clip-path="url(#clip0_901_2765)">
<path d="M31 22V30C31 30.55 30.55 31 30 31H26C25.45 31 25 30.55 25 30V25V22C25 21.45 25.45 21 26 21H30C30.55 21 31 21.45 31 22Z" fill="#FFE6EA"/>
<path d="M31 2V22C31 21.45 30.55 21 30 21H26H15V14C15 13.45 14.55 13 14 13H2C1.45 13 1 13.45 1 14V2C1 1.44 1.45 1 2 1H30C30.55 1 31 1.44 31 2Z" fill="#668077"/>
<path d="M15 21H26C25.45 21 25 21.45 25 22V25H18H15V21Z" fill="#FFE6EA"/>
<path d="M18 25V30L21 31H14C14.55 31 15 30.55 15 30V25H18Z" fill="#FFE6EA"/>
<path d="M15 25V30C15 30.55 14.55 31 14 31H2C1.45 31 1 30.55 1 30V14C1 13.45 1.45 13 2 13H14C14.55 13 15 13.45 15 14V21V25Z" fill="#FFC44D"/>
<path d="M1 10V1.995C1 1.442 1.447 1 2 1H30C30.553 1 31 1.442 31 1.995V18M21 30.998L18 29.995V25H22M22 21H18M31 30C31 30.553 30.553 31 30 31H26C25.447 31 25 30.553 25 30V22C25 21.447 25.447 21 26 21H30C30.553 21 31 21.447 31 22V30ZM15 30C15 30.553 14.553 31 14 31H2C1.447 31 1 30.553 1 30V14C1 13.447 1.447 13 2 13H14C14.553 13 15 13.447 15 14V30Z" stroke="#000000" stroke-width="2" stroke-linecap="round" stroke-linejoin="round"/>
</g>
<defs>
<clipPath id="clip0_901_2765">
<rect width="32" height="32" fill="white"/>
</clipPath>
</defs>
</svg>