<?xml version="1.0" encoding="iso-8859-1"?>
<!-- Uploaded to: SVG Repo, www.svgrepo.com, Generator: SVG Repo Mixer Tools -->
<svg height="800px" width="800px" version="1.1" id="Capa_1" xmlns="http://www.w3.org/2000/svg" xmlns:xlink="http://www.w3.org/1999/xlink" 
	 viewBox="0 0 432.458 432.458" xml:space="preserve">
<g>
	<g>
		<path style="fill:#010002;" d="M342.491,422.459c-1.283,0-2.566-0.203-3.813-0.621l-122.446-41.231L93.779,421.838
			c-3.664,1.241-7.691,0.615-10.824-1.653c-3.127-2.273-4.958-5.919-4.917-9.786l1.372-129.195L2.355,177.477
			c-2.303-3.103-2.966-7.13-1.772-10.806c1.193-3.676,4.099-6.546,7.787-7.703l123.299-38.624L206.5,15.017
			c2.244-3.151,5.865-5.024,9.732-5.024l0,0c3.861,0,7.488,1.868,9.732,5.024l74.825,105.333l123.299,38.618
			c3.688,1.158,6.587,4.028,7.787,7.703c1.193,3.676,0.537,7.703-1.772,10.806l-77.056,103.722l1.372,129.195
			c0.042,3.861-1.796,7.512-4.917,9.786C347.437,421.677,344.979,422.459,342.491,422.459z"/>
	</g>
</g>
</svg>